<?xml version="1.0" encoding="UTF-8"?>
<!DOCTYPE svg PUBLIC "-//W3C//DTD SVG 1.1//EN" "http://www.w3.org/Graphics/SVG/1.1/DTD/svg11.dtd">
<!-- Creator: CorelDRAW 2018 (64 Bit) -->
<svg xmlns="http://www.w3.org/2000/svg" xml:space="preserve" width="655px" height="766px" version="1.1" style="shape-rendering:geometricPrecision; text-rendering:geometricPrecision; image-rendering:optimizeQuality; fill-rule:evenodd; clip-rule:evenodd"
viewBox="0 0 193.61 226.49"
 xmlns:xlink="http://www.w3.org/1999/xlink">
 <defs>
  <style type="text/css">
   <![CDATA[
    .str0 {stroke:#434343;stroke-width:2.46;stroke-linecap:round;stroke-linejoin:round;stroke-miterlimit:22.9256}
    .fil0 {fill:#434343}
   ]]>
  </style>
 </defs>
 <g id="Capa_x0020_1">
  <metadata id="CorelCorpID_0Corel-Layer"/>
  <path class="fil0" d="M88.44 0.78c-1.78,0 -11.57,1.56 -13.67,2.08 -1.04,0.26 -2.16,0.42 -3.25,0.59l-3.68 0.61c-2.16,0.54 -4.07,0.8 -6.43,1.49l-6.34 1.81c-1.27,0.29 -4.74,1.34 -6.09,1.99 -0.92,0.44 -1.85,0.76 -2.7,1.15l-5.16 2.88c-1.5,0.9 -1.24,0.88 -2.34,1.86 -1.36,1.21 -2.84,2.26 -3.32,4.57 -0.1,0.49 -0.05,2.35 0.16,2.99 0.02,0.07 0.05,0.13 0.08,0.2l0.29 0.55c0.37,0.79 0.47,1.91 0.89,2.53 0.3,0.44 2.41,2.06 3.75,2.46 0.3,0.09 0.43,0.13 0.83,0.21 1.17,0.26 2.67,0.19 3.38,0.09l1.02 -0.28c0.07,-0.02 0.14,-0.03 0.22,-0.05l1.98 -0.54c1.11,-0.29 0.41,-0.08 1.32,-0.56 0.06,-0.03 0.12,-0.07 0.18,-0.1l1.29 -0.49c0.08,-0.02 0.35,-0.07 0.43,-0.09 0.34,-0.1 4.05,-2.04 5.7,-2.56l4.57 -1.73c4.1,-1.32 4.94,-0.93 6.59,-1.4 4.53,-1.29 8.04,-0.58 12.76,-0.59 2.22,-0.01 5.1,0.62 7.06,1.31 1.99,0.71 4.22,1.06 6.21,2.19 1.21,0.69 1.33,0.53 2.6,1.49l0.27 0.2c1.77,1.3 2.77,2.1 4,4.16 1.47,2.45 1.39,5.32 0.58,7.98 -0.53,1.75 -0.23,1.41 -1.38,3.33 -0.3,0.5 -0.28,0.27 -0.58,0.82 -0.78,1.42 -1.06,1.58 -2.25,2.85 -0.56,0.59 0.01,0.1 -0.52,0.53l-4.31 1.92c-4.48,1.37 -9.66,1.51 -14.44,0.21 -1.25,-0.33 -2.5,-0.35 -3.7,-0.55 -2.36,-0.4 -4.21,-1.18 -6.55,-1.72l-18.29 -4.87c-1.53,-0.31 -3.58,-1.24 -5.03,-1.51l-6.85 -1.32c-1.4,-0.22 -2.57,-0.32 -3.92,-0.57 -1.29,-0.24 -2.76,-0.2 -4.04,-0.03 -1.01,0.13 -1.68,-0.38 -2.94,-0.22l-5.97 1.72c-1.09,0.37 -1.96,0.8 -2.67,1.51 -3.31,3.31 -1.73,2.19 -3.56,4.75 -0.82,1.16 -1.17,1.69 -1.21,3.39 -0.03,1.43 -0.45,1.96 -0.47,3.59 -0.01,1.29 0.09,3.76 0.77,5.11l1.47 2.8c0.4,0.75 0.34,0.71 0.93,1.31 0.99,0.99 2.14,2.27 3.48,2.74 0.93,0.33 3.58,2.1 5.48,2.89l7.49 1.15c1.17,0.11 0.68,0.41 1.56,0.43l6.41 -0.3c1.53,-0.25 3.92,-0.04 5.2,-0.24l3.72 -0.56c0.68,-0.05 1.07,-0.12 1.81,-0.23l14.52 -3.4c1.01,-0.17 0,0.04 0.71,-0.3 1.49,-0.7 3.48,-0.88 5.18,-1.34l6.58 -1.02c0.08,-0.01 0.14,-0.03 0.22,-0.04l0.44 -0.08c0.35,-0.05 0.54,-0.05 0.88,-0.09l8.91 -0.2c1.09,0 6.8,0.86 8.06,1.33 1.96,0.73 4.36,1.23 6.25,2.06 0.42,0.19 0.12,0.01 0.49,0.27l1.68 1.21c0.73,0.52 -0.05,0.01 0.72,0.63 0.99,0.79 0.79,0.26 1.53,1.07 2.3,2.56 4.32,4.57 5.26,7.94l0.17 1c0.03,0.33 0.22,0.16 -0.19,0.35 -0.08,1.83 0.2,2.51 -0.53,3.92 -1.9,3.7 -3.22,5.12 -8.37,5.69 -1.21,0.14 -1.05,0.37 -1.82,0.45 -0.88,0.09 -1.15,-0.17 -2.07,-0.22 -2.81,-0.14 -1.99,-0.23 -4.09,-0.53 -5.09,-0.74 -10.51,-1.98 -15.39,-3.06 -4.18,-0.93 -8.29,-1.25 -12.46,-1.56l-6.17 -0.88c-1.06,-0.21 -0.95,0.08 -1.77,-0.07l-3.79 -0.38c-0.52,0 -1.1,-0.32 -1.76,-0.4l-10.28 -1.08c-1.48,-0.22 -3.08,0.06 -4.54,-0.14 -2.71,-0.37 -5.36,-0.38 -8.42,-0.28 -1.06,0.03 -2.37,-0.42 -4.12,-0.34 -0.92,0.04 -1.06,0.23 -2.06,0.24 -1.88,0.03 -1.62,-0.31 -3.53,0.06 -0.65,0.13 -0.91,0.1 -1.66,0.17 -0.67,0.05 -0.78,0.17 -1.51,0.28 -2.02,0.33 -1.84,-0.68 -7.49,1.25 -1.49,0.51 -2.61,0.26 -4.95,1.66 -0.88,0.52 -1.06,0.7 -1.88,1.46 -0.89,0.8 -1.4,0.54 -2.02,1.68 -1.91,3.54 -2.16,3.07 -1.91,7.64 0.1,1.65 1.01,4.07 2.11,5.17l1.32 1.34c0.45,0.65 1.37,1.51 2.38,1.96 0.64,0.29 0.76,0.26 1.33,0.63l4.25 1.16c0.07,0.01 0.13,0.03 0.21,0.04 2.55,0.39 6.62,0.18 8.06,-0.49 1.22,-0.57 0.09,0.09 1.24,-0.29l3.75 -1.2c1.52,-0.38 3.72,-1.8 5.28,-2.31 0.49,-0.16 0.54,-0.07 1.04,-0.25 0.74,-0.25 0.04,-0.09 0.91,-0.39l0.57 -0.17c0.05,-0.01 0.12,-0.04 0.18,-0.06l4.09 -1.39c0.06,-0.02 0.13,-0.03 0.2,-0.05 0.51,-0.16 0.13,-0.02 0.58,-0.2 0.66,-0.25 0.93,-0.4 2.01,-0.51 1.58,-0.16 2.2,-0.82 3.96,-1.05 0.85,-0.11 1.65,0.03 2.45,-0.16 2.49,-0.6 8.97,-0.94 11.24,-0.79 0.86,0.05 1.06,0.21 2.09,0.22 1.37,0.02 2.35,0.44 3.54,0.63 0.02,0 0.07,-0.03 0.48,0.03l0.54 0.13c0.06,0.02 0.14,0.04 0.2,0.05 2.2,0.52 4.36,1.63 6.39,2.76l0.81 0.4c2.04,1.13 5.24,5.16 5.34,6.24l-0.23 1.04c-0.26,1.5 1.19,1.83 -0.82,5.59 -1.68,3.12 -6.88,6 -10.56,7.06 -1.17,0.33 -3.23,1.07 -4.04,1.2 -0.63,0.1 -0.88,-0.09 -1.7,0.1 -2.25,0.52 -4.81,1 -7.04,1.04 -1.05,0.02 0.01,-0.12 -0.71,-0.12l-5.36 0.12c-3.15,-0.16 -6.45,-0.88 -7.9,-0.99 -1.56,-0.13 -0.82,0.52 -2.43,-0.05 -2.76,-0.99 -13.66,-1.58 -16.03,-1.02 -1.32,0.31 -4.2,1.01 -4.88,1.38 -0.54,0.29 0.04,-0.05 -0.45,0.36l-0.29 0.26c-2.01,1.76 -1.42,2.48 -2.39,3.63l-0.8 1.51c-0.48,1.38 0.02,4.72 2.35,6.2 1,0.64 0.22,0.17 0.94,0.94 0.7,0.73 3.72,2.13 4.79,2.26l5.16 1.72c1.23,0 0.03,-0.29 1.16,-0.08 2.58,0.49 1.31,0.09 2.52,0.12 0.87,0.02 0.37,0.41 1.26,0.41 0.56,0 0.78,-0.3 1.81,-0.22 0.89,0.08 3.04,0.44 3.99,0.3 1.68,-0.25 4.46,0.21 6.11,-0.12 0.91,-0.18 0.18,-0.32 1.86,-0.41l5.46 -0.67c1.79,-0.1 1.99,-0.05 3.05,-0.46 0.56,-0.22 0.32,-0.24 0.91,-0.38l13.13 -4.02c0.5,-0.26 0.48,-0.33 0.9,-0.44 0.65,-0.17 0.97,-0.08 1.71,-0.34l7.29 -2.01c3.54,-0.83 7.48,-0.97 9.94,0.02 0.07,0.03 0.3,0.1 0.38,0.13 0.81,0.29 0.46,0.07 0.97,0.44 0.37,0.27 0.15,0.21 0.55,0.49 2.56,1.84 1.7,3.71 1.75,5.69 0.02,0.96 0.32,0.89 0.09,1.95 -0.29,1.4 -1.85,4.57 -3.59,5.41 -2.84,1.38 -3.1,1.8 -6.5,2.68 -2.09,0.53 -6.03,1.18 -7.58,0.97 -1.96,-0.27 -3.46,0.29 -5.32,0.18 -3.9,-0.24 -6.2,0.68 -9.89,1.12 -3.14,0.37 -4.41,1.64 -7.04,2.9 -1.32,0.62 -2.21,1.6 -2.88,2.91 -0.75,1.48 -0.88,2.31 -0.17,3.76 0.39,0.8 0.42,1.38 0.78,2.04 1.2,2.2 4.59,4.02 6.69,5.29l0.34 0.23c0.9,0.58 2.31,0.78 3.17,1.25 0.67,0.37 1.07,0.53 1.7,0.87 0.92,0.5 7.9,2.2 9.15,2.38l2.38 0.4c3.93,0.75 7.21,0.87 10.85,0.96l4.93 0.23c0.76,0 0.33,-0.15 1.18,-0.09 1.37,0.1 3.22,-0.11 4.54,0.13 1.84,0.34 -0.11,0.47 2.12,0.04l9.05 -0.31c3.12,0.01 3.64,-0.51 5.83,-0.41 0.52,0.02 0.9,0.06 1.13,0 0.6,-0.13 0.04,-0.19 1.1,-0.28 0.57,-0.05 1.2,0.04 1.62,0l6.57 -0.73c1.52,-0.25 3.11,-0.42 4.65,-1.04 1.49,-0.6 1.3,-0.23 2.52,-0.28 0.46,-0.02 0.71,-0.45 2.54,-0.64 3.75,-0.41 7.15,-1.49 10.77,-2.41l4.03 -1.5c1.77,-0.79 3.14,-1.24 4.54,-1.96l1.79 -0.79c2.4,-0.71 5.99,-4.12 6.66,-6.43 0.76,-2.67 -1.66,-4.31 -4.62,-4.31 -3.96,0 -8.34,0.61 -12.34,1.22l-7.37 1.32c-2.28,0.43 -4.73,1.12 -7.14,1.16 -2.81,0.05 -6.69,0.83 -9.86,0.91 -2.69,0.08 -1.61,0.38 -4.91,-0.06 -2.7,-0.36 -7.64,-0.74 -9.62,-2.4 -0.29,-0.25 -0.41,-0.45 -0.65,-0.66 -1.06,-0.87 -2.38,-1.9 -2.93,-3.27l-0.79 -2.31c-0.09,-0.4 -0.31,-0.95 -0.35,-1.14 -0.14,-0.79 -0.08,-1.79 -0.21,-2.63 -0.16,-1.09 0.07,-2.79 0.22,-3.37 0.42,-1.68 0.89,-2.01 1.9,-3.3 0.35,-0.45 -0.1,0 0.33,-0.43l2.69 -1.95c0.05,-0.03 0.12,-0.05 0.18,-0.08l5.86 -1.4c4.11,-0.71 3.66,-0.04 6.78,-0.2 2.77,-0.14 4.08,0.36 6.32,0.66 0.52,0.07 0.96,0.01 1.46,0.05l17.45 3.6c1,0.18 1.7,0.89 3.6,1.1l10.81 2.79c1.21,0.21 1.73,0.59 2.33,0.72l6.99 0.62c1.22,-0.12 1.7,-0.08 2.87,0.06l9.64 -1.5c0.72,-0.3 1.33,-0.61 1.96,-0.9l2.08 -1.12c1.27,-0.96 2.43,-2.2 2.73,-3.56 0.94,-4.27 -0.87,-5.01 -1.8,-6.66 -0.51,-0.9 0.25,-0.15 -0.47,-0.99 -1.23,-1.44 -3.19,-1.99 -4.55,-2.97 -2.81,-2.01 -11.45,-3.27 -14.9,-3.27 -1.48,0.01 -4.38,0.21 -5.44,0.08 -1.65,-0.2 -19.76,2.33 -27.28,1.52 -1.91,-0.2 -3.77,-0.1 -5.69,-0.29 -1.86,-0.18 -3.51,-0.46 -5.26,-0.63 -1.12,-0.11 -1.32,-0.43 -2.34,-0.6 -4.04,-0.66 -8.15,-1.65 -11.78,-3.5 -0.55,-0.28 -0.37,-0.15 -0.74,-0.28 -1.99,-0.71 -3.93,-1.87 -5.65,-3.11l-2.37 -2.34c-0.57,-0.59 -2.18,-3.97 0.18,-6.44 0.53,-0.55 1.03,-0.87 1.67,-1.16l0.95 -0.34c0.06,-0.03 0.13,-0.05 0.19,-0.07 0.06,-0.02 0.13,-0.05 0.19,-0.07 1.11,-0.35 2.83,-0.19 3.77,-0.34 1.72,-0.28 4.79,0.53 6.62,0.76l7.1 1.27c2.94,0.5 5.72,1.44 8.72,1.9 1.56,0.24 2.94,0.24 5.08,0.76 2.16,0.53 5.98,0.26 8.19,0.59 3.55,0.52 7.66,0.21 11.16,0.46l23.39 -1.59c0.63,-0.1 1.33,-0.33 1.88,-0.4 0.44,-0.05 0.78,-0.01 1.22,-0.08 0.24,-0.04 0.95,-0.28 0.98,-0.29 2.86,-0.76 7.46,-1.47 9.92,-3.07l2.34 -1.1c1.31,-0.59 3.09,-2.2 4.02,-3.28 0.57,-0.67 1.21,-2.37 1.4,-3.27 0.25,-1.12 0.56,-3.24 0.67,-4.1 0.35,-2.7 -0.42,-6.05 -1.28,-8.31 -0.3,-0.78 -0.48,-0.77 -0.92,-1.51 -0.98,-1.67 -0.86,-2.26 -3.53,-3.72 -3.4,-1.86 -6.98,-1.47 -10.52,-0.01 -0.81,0.34 -1.31,0.75 -2,1.08 -0.66,0.31 -1.79,0.54 -2.5,0.82 -1.46,0.58 -3.06,1.17 -4.54,1.74 -2.13,0.83 -4.73,1.96 -7.03,2.54 -2.29,0.57 -3.97,1.37 -6.15,1.79 -0.35,0.06 -0.89,0.21 -1.44,0.33l-7.99 1.21c-4.89,0.07 -12.39,1.07 -16.79,-4.38 -0.96,-1.18 -1.37,-2.25 -1.84,-3.61l-0.14 -0.35c-0.33,-0.85 -0.58,-4.23 -0.39,-5.3l0.44 -2.64c0.55,-2.34 2,-4.51 4.05,-5.79 0.23,-0.15 0.09,-0.03 0.48,-0.29l4.42 -2.32c1.86,-0.64 3.9,-1.28 5.87,-1.47l15.13 0.43 20.99 4.68c4.12,0.29 6.19,1.65 10.3,-0.48 0.28,-0.15 0.31,-0.13 0.71,-0.34 1.15,-0.6 1.43,-1.47 2.05,-2.39 2.49,-3.71 1.6,-4.54 1.34,-7.85 -0.14,-1.81 -1.12,-3.34 -2.18,-4.58l-0.35 -0.51c-0.76,-1.18 -2.18,-1.9 -3.33,-2.63 -2.44,-1.55 -2.18,-2.26 -6.72,-3.44 -3.27,-0.86 -7.49,-2.48 -10.9,-2.6l-6.22 -0.61c-4.87,-0.62 -13.46,1.14 -18.25,2.42 -0.98,0.26 -1.4,0.66 -2.37,0.88l-5.84 1.02c-1.19,0.3 -1.25,0.55 -2.68,0.56 -4.18,0.03 -7.63,-0.46 -11.2,-2.11 -1.65,-0.75 -2.71,-1.69 -3.87,-2.94 -0.73,-0.77 -0.74,-1.35 -1.16,-2.13 -2.11,-3.88 -0.68,-5.64 1.59,-8.63 0.23,-0.31 0.3,-0.4 0.63,-0.68 0.34,-0.27 0.48,-0.33 0.77,-0.53l2.23 -1.14c0.42,-0.22 0.14,-0.03 0.52,-0.24l3.11 -1.08c2.32,-0.81 6.42,-0.88 8.7,-0.28 2.77,0.73 6.12,1.23 8.72,2.45l5.9 2.09c0.05,0.02 0.12,0.04 0.17,0.06l2.12 0.79c3.07,0.87 8.52,3.88 12.48,2.34 1.54,-0.61 2.97,-0.23 3.93,-1.8 1.59,-2.58 0.08,-4.9 -0.97,-7.38 -0.21,-0.51 -0.1,-0.33 -0.34,-0.67 -1.02,-1.44 -3.33,-4.1 -4.64,-5.05 -1.42,-1.04 -3.44,-2.23 -4.65,-3.44l-5.9 -3.4c-6.47,-3.06 -13.02,-5.4 -20.02,-6.82 -2.36,-0.47 -3.77,-1.18 -6.45,-1.22l-9.73 -1.35c-1.36,-0.3 -2.3,0.01 -2.9,-0.14 -1.8,-0.49 -1.65,-0.3 -3.54,-0.09l-7.26 -0.31c-1.01,-0.08 -2.39,0.24 -3.35,0.3 -0.54,0.03 -0.76,-0.18 -1.51,-0.21 -0.85,-0.03 -1.11,0.13 -1.89,0.22l-5.14 0.6c-0.45,0.01 -1.04,-0.14 -1.31,-0.14z"/>
  <g id="_1342767449024">
   <path class="fil0 str0" d="M119.51 198.66c0.09,0.3 0.4,1.05 0.57,1.53l7.9 21.65c0.33,0.87 0.91,2.15 1.12,3.19l1.48 0.09 0.01 -30.54c-0.11,-0.57 -0.15,-0.4 -0.33,-0.67l-0.78 0c-0.5,0.64 -0.17,-0.62 -0.44,0.93 -0.16,0.9 0.31,23.85 -0.08,25.07l-6.33 -17.34c-0.18,-0.49 -0.16,-0.32 -0.32,-0.71l-2.99 -7.97 -1.44 0.07 0.01 30.94 1.55 0.22 0.07 -26.46z"/>
   <path class="fil0 str0" d="M69.02 195.47c6.14,-0.01 9.07,-0.18 9.07,7.44 0,3.06 -0.06,4.99 -1.94,6.48 -1.79,1.42 -4.72,1.06 -7.23,1.05l0.1 -14.97zm5.28 16.46c2.37,-1.03 3.93,-1.8 4.94,-4.19 0.6,-1.44 0.67,-6.49 0.37,-8.46 -1,-6.42 -8.01,-5.38 -12.25,-5.38l0.03 31.08 1.53 0 0.01 -12.97 3.89 0.05c0.11,2.2 4.76,10.1 5.31,12.99l1.72 -0.07c-0.18,-1.08 -3.49,-8.27 -4.23,-10.05 -0.29,-0.7 -0.76,-2.48 -1.32,-3z"/>
   <path class="fil0 str0" d="M98.47 195.51c0.05,-0.01 0.08,-0.09 0.1,-0.1 1.45,-0.72 4.63,1.12 5.39,3.69 0.46,1.54 0.41,16.77 0.28,19.17 -0.14,2.56 -1.78,4.73 -4.24,5.29 -1.98,0.45 -4.42,-0.51 -5.54,-2.97 -0.18,-0.39 -0.19,-0.33 -0.33,-0.76 -0.39,-1.21 -0.2,-16.74 -0.18,-19.27 0.03,-3.89 2.31,-4.53 4.52,-5.05zm-0.87 -1.61c-7.01,1.63 -5.2,9.72 -5.2,17.07 0,4.77 -1.22,10.99 3.41,13.4 1.45,0.75 2.93,1.14 4.66,0.71 1.49,-0.37 2.56,-1 3.5,-1.91 2.34,-2.27 1.84,-6.22 1.84,-9.34l-0.07 -13.96c-0.65,-4.26 -3.88,-6.96 -8.14,-5.97z"/>
   <path class="fil0 str0" d="M44.52 212.25c0.02,-0.07 0.03,-0.14 0.04,-0.22l0.09 -0.43c0.01,-0.08 0.03,-0.14 0.04,-0.21l3.58 -15.9c0.53,3.08 1.5,6.3 2.14,9.3 0.64,3.04 1.33,5.8 1.96,8.86 -0.91,0.27 -6.76,0.33 -8.24,0.02l0.39 -1.42zm-2.89 12.73c0.24,-0.77 0.29,-1.29 0.51,-2.17l1.23 -5.14c0.01,-0.08 0.03,-0.15 0.04,-0.22l0.09 -0.7c0.32,-1.83 0.67,-1.39 4.11,-1.39 1.73,0 3.48,-0.07 5.2,0.09 -0.08,1.05 1.71,7.63 2.07,9.53l1.51 -0.04c0.07,-1.04 -0.54,-2.84 -0.78,-3.93 -0.3,-1.38 -0.6,-2.46 -0.88,-3.92 -0.05,-0.23 -0.07,-0.45 -0.11,-0.64 -0.01,-0.06 -0.02,-0.13 -0.03,-0.19l-0.48 -2.12c-0.02,-0.1 -0.16,-0.65 -0.2,-0.79 -0.28,-1.18 -0.59,-2.54 -0.87,-3.86l-0.34 -1.74c-0.02,-0.08 -0.09,-0.3 -0.11,-0.38l-2.98 -13.47c-2.99,0 -2.53,-0.52 -3.08,1.93l-4.64 20.85c-0.47,1.93 -1.58,6.34 -1.77,8.29l1.51 0.01z"/>
   <path class="fil0 str0" d="M168.04 195.47l10.46 0.08 -0.05 -1.64 -12.06 0 0.02 31.07c2.94,0 9.5,-0.34 12.02,0.14l0.02 -1.56c-2.35,-0.44 -7.78,-0.15 -10.5,-0.15l0.03 -14.76 8.69 0.12 -0.02 -1.44c-1.41,-0.59 -6.77,-0.24 -8.71,-0.24l0.1 -11.62z"/>
   <path class="fil0 str0" d="M28.69 218.49c-3.33,0 -0.35,0.61 -3.12,3.46 -3.43,3.51 -7.89,1 -8.65,-2.51l-0.08 -15.23c0,-4.88 -0.17,-7.64 4.01,-8.77 0.06,-0.02 0.13,-0.04 0.2,-0.05 0.07,-0.02 0.13,-0.04 0.2,-0.05 0.07,-0.02 0.14,-0.04 0.21,-0.05 0.56,-0.09 0.82,-0.07 1.34,0.06l0.91 0.31c0.05,0.02 0.12,0.04 0.18,0.06 0.59,0.23 0.49,0.14 0.99,0.57 1.9,1.66 1.31,1.71 2.35,4.04l1.56 0.12c-0.58,-2.66 -1.24,-4.63 -3.25,-5.81 -2.09,-1.23 -4.99,-1.21 -7.18,0.1 -4.33,2.58 -3.08,9.75 -3.08,14.93 0,5.39 -1.15,12.33 3.24,14.64 0.9,0.47 1.84,0.86 3.35,0.9 4.04,0.13 6.24,-2.69 6.82,-6.72z"/>
   <polygon class="fil0 str0" points="149.29,195.47 155.18,195.46 155.34,193.91 141.31,193.91 141.52,195.48 147.38,195.49 147.41,224.99 149.17,224.92 "/>
  </g>
 </g>
</svg>
