<?xml version="1.0" encoding="UTF-8"?>
<!DOCTYPE svg PUBLIC "-//W3C//DTD SVG 1.1//EN" "http://www.w3.org/Graphics/SVG/1.1/DTD/svg11.dtd">
<!-- Creator: CorelDRAW 2018 (64 Bit) -->
<svg xmlns="http://www.w3.org/2000/svg" xml:space="preserve" width="655px" height="766px" version="1.1" style="shape-rendering:geometricPrecision; text-rendering:geometricPrecision; image-rendering:optimizeQuality; fill-rule:evenodd; clip-rule:evenodd"
viewBox="0 0 665.05 778.01"
 xmlns:xlink="http://www.w3.org/1999/xlink">
 <defs>
  <style type="text/css">
   <![CDATA[
    .str0 {stroke:#F3F3F3;stroke-width:8.46;stroke-linecap:round;stroke-linejoin:round;stroke-miterlimit:22.9256}
    .fil0 {fill:#F3F3F3}
   ]]>
  </style>
 </defs>
 <g id="Capa_x0020_1">
  <metadata id="CorelCorpID_0Corel-Layer"/>
  <path class="fil0" d="M303.79 2.67c-6.1,0 -39.74,5.36 -46.94,7.16 -3.59,0.89 -7.43,1.44 -11.17,2l-12.63 2.11c-7.42,1.85 -14,2.74 -22.1,5.12l-21.78 6.22c-4.35,1 -16.29,4.62 -20.92,6.83 -3.16,1.5 -6.34,2.62 -9.27,3.94l-17.73 9.92c-5.14,3.09 -4.26,3.01 -8.03,6.36 -4.68,4.18 -9.77,7.77 -11.42,15.72 -0.35,1.67 -0.16,8.06 0.55,10.26 0.08,0.25 0.17,0.47 0.26,0.71l1.01 1.89c1.27,2.69 1.61,6.54 3.07,8.68 1.01,1.49 8.27,7.08 12.86,8.45 1.04,0.31 1.51,0.44 2.86,0.73 4.03,0.88 9.17,0.66 11.6,0.3l3.51 -0.97c0.27,-0.07 0.5,-0.09 0.77,-0.16l6.81 -1.86c3.81,-1 1.4,-0.29 4.52,-1.93 0.2,-0.1 0.43,-0.23 0.63,-0.33l4.42 -1.7c0.29,-0.08 1.2,-0.23 1.48,-0.32 1.16,-0.34 13.91,-6.98 19.58,-8.77l15.7 -5.96c14.07,-4.51 16.97,-3.17 22.63,-4.78 15.58,-4.44 27.62,-2 43.85,-2.06 7.61,-0.03 17.5,2.14 24.23,4.53 6.83,2.41 14.52,3.63 21.33,7.51 4.15,2.37 4.57,1.81 8.93,5.12l0.94 0.68c6.06,4.48 9.52,7.22 13.74,14.29 5.04,8.43 4.78,18.28 2,27.43 -1.83,5.99 -0.81,4.83 -4.76,11.42 -1.04,1.73 -0.94,0.93 -1.98,2.81 -2.7,4.87 -3.65,5.42 -7.74,9.78 -1.92,2.05 0.03,0.37 -1.78,1.83l-14.8 6.59c-15.38,4.73 -33.2,5.19 -49.6,0.75 -4.3,-1.16 -8.59,-1.22 -12.72,-1.91 -8.11,-1.37 -14.46,-4.05 -22.48,-5.9l-62.84 -16.74c-5.26,-1.04 -12.3,-4.26 -17.29,-5.16l-23.51 -4.56c-4.84,-0.76 -8.82,-1.09 -13.46,-1.95 -4.44,-0.83 -9.49,-0.67 -13.91,-0.1 -3.44,0.44 -5.76,-1.3 -10.1,-0.75l-20.5 5.91c-3.74,1.25 -6.72,2.75 -9.16,5.19 -11.37,11.37 -5.94,7.52 -12.22,16.31 -2.84,3.97 -4.03,5.79 -4.17,11.65 -0.11,4.92 -1.54,6.72 -1.6,12.34 -0.05,4.42 0.29,12.91 2.64,17.54l5.04 9.62c1.37,2.56 1.17,2.43 3.21,4.48 3.38,3.4 7.34,7.8 11.96,9.43 3.19,1.13 12.28,7.21 18.82,9.92l25.72 3.95c4.02,0.38 2.33,1.41 5.34,1.48l22.03 -1.04c5.25,-0.86 13.46,-0.12 17.86,-0.81l12.79 -1.94c2.33,-0.16 3.68,-0.42 6.22,-0.78l49.88 -11.69c3.45,-0.58 -0.02,0.14 2.42,-1 5.11,-2.41 11.97,-3.03 17.8,-4.62l22.61 -3.5c0.27,-0.04 0.48,-0.09 0.75,-0.13l1.5 -0.3c1.2,-0.17 1.87,-0.16 3.03,-0.29l30.6 -0.71c3.74,0 23.37,2.96 27.7,4.58 6.72,2.52 14.97,4.25 21.46,7.09 1.44,0.63 0.43,0.03 1.68,0.91l5.78 4.18c2.51,1.77 -0.16,0.02 2.49,2.14 3.39,2.73 2.71,0.9 5.23,3.7 7.91,8.8 14.86,15.67 18.07,27.24l0.58 3.45c0.11,1.12 0.77,0.57 -0.64,1.21 -0.27,6.27 0.67,8.61 -1.82,13.46 -6.55,12.73 -11.05,17.58 -28.75,19.56 -4.17,0.46 -3.63,1.25 -6.24,1.52 -3.04,0.32 -3.98,-0.59 -7.12,-0.74 -9.65,-0.49 -6.83,-0.79 -14.07,-1.84 -17.47,-2.52 -36.09,-6.79 -52.86,-10.5 -14.34,-3.18 -28.48,-4.28 -42.78,-5.37l-21.22 -3.02c-3.64,-0.71 -3.25,0.28 -6.08,-0.23l-13.01 -1.3c-1.77,0 -3.79,-1.1 -6.06,-1.38l-35.3 -3.69c-5.07,-0.78 -10.58,0.18 -15.58,-0.5 -9.32,-1.26 -18.43,-1.31 -28.95,-0.97 -3.62,0.11 -8.13,-1.45 -14.12,-1.16 -3.17,0.15 -3.66,0.79 -7.1,0.84 -6.46,0.1 -5.56,-1.09 -12.13,0.2 -2.23,0.44 -3.12,0.34 -5.7,0.56 -2.3,0.2 -2.68,0.59 -5.16,0.99 -6.95,1.14 -6.35,-2.33 -25.74,4.28 -5.11,1.74 -8.97,0.9 -16.99,5.69 -3.03,1.81 -3.66,2.43 -6.49,5.02 -3.03,2.77 -4.79,1.88 -6.91,5.79 -6.57,12.15 -7.44,10.53 -6.56,26.25 0.32,5.66 3.46,13.98 7.24,17.74l4.51 4.6c1.57,2.25 4.74,5.19 8.2,6.75 2.2,0.99 2.59,0.87 4.57,2.17l14.59 3.96c0.26,0.04 0.46,0.12 0.71,0.16 8.77,1.34 22.76,0.6 27.69,-1.7 4.2,-1.96 0.33,0.3 4.28,-1l12.89 -4.1c5.19,-1.3 12.74,-6.2 18.12,-7.97 1.67,-0.54 1.85,-0.24 3.58,-0.83 2.52,-0.88 0.14,-0.31 3.12,-1.35l1.94 -0.56c0.19,-0.07 0.43,-0.16 0.63,-0.23l14.04 -4.77c0.22,-0.06 0.47,-0.11 0.69,-0.18 1.77,-0.55 0.46,-0.08 1.99,-0.67 2.28,-0.88 3.21,-1.37 6.92,-1.75 5.4,-0.56 7.54,-2.82 13.6,-3.61 2.93,-0.38 5.67,0.11 8.41,-0.55 8.55,-2.06 30.8,-3.24 38.61,-2.74 2.95,0.19 3.63,0.73 7.17,0.78 4.72,0.07 8.1,1.51 12.18,2.16 0.06,0.01 0.23,-0.12 1.63,0.1l1.88 0.46c0.21,0.05 0.45,0.12 0.66,0.17 7.58,1.79 15,5.57 21.95,9.48l2.79 1.37c7,3.89 17.99,17.73 18.34,21.44l-0.77 3.55c-0.89,5.15 4.08,6.3 -2.84,19.22 -5.74,10.72 -23.61,20.62 -36.27,24.23 -4,1.14 -11.09,3.7 -13.86,4.13 -2.16,0.34 -3.02,-0.32 -5.86,0.34 -7.72,1.78 -16.5,3.43 -24.16,3.58 -3.62,0.07 0.03,-0.4 -2.45,-0.4l-18.41 0.42c-10.82,-0.58 -22.17,-3.03 -27.14,-3.42 -5.37,-0.43 -2.8,1.79 -8.35,-0.19 -9.48,-3.37 -46.92,-5.41 -55.05,-3.5 -4.55,1.07 -14.44,3.49 -16.78,4.76 -1.83,1 0.15,-0.18 -1.54,1.22l-1 0.92c-6.9,6.03 -4.86,8.5 -8.19,12.47l-2.77 5.17c-1.66,4.75 0.07,16.21 8.06,21.29 3.46,2.19 0.78,0.6 3.26,3.23 2.38,2.53 12.77,7.31 16.44,7.77l17.73 5.91c4.21,0 0.08,-1.01 3.96,-0.27 8.89,1.69 4.51,0.3 8.68,0.41 2.99,0.07 1.27,1.4 4.32,1.4 1.92,0 2.7,-1.03 6.21,-0.74 3.06,0.26 10.45,1.49 13.7,1.01 5.79,-0.86 15.34,0.74 21.01,-0.39 3.12,-0.62 0.62,-1.1 6.39,-1.42l18.77 -2.31c6.13,-0.33 6.81,-0.16 10.46,-1.57 1.93,-0.75 1.11,-0.83 3.13,-1.3l45.11 -13.82c1.69,-0.9 1.65,-1.11 3.09,-1.5 2.22,-0.6 3.31,-0.28 5.85,-1.17l25.07 -6.9c12.14,-2.87 25.68,-3.34 34.11,0.05 0.26,0.11 1.04,0.34 1.32,0.44 2.78,1.01 1.58,0.25 3.33,1.54 1.27,0.93 0.53,0.7 1.88,1.67 8.8,6.33 5.84,12.76 6.02,19.55 0.09,3.29 1.1,3.04 0.32,6.69 -1.01,4.81 -6.35,15.7 -12.35,18.6 -9.75,4.72 -10.64,6.15 -22.33,9.18 -7.16,1.85 -20.71,4.05 -26.02,3.33 -6.73,-0.92 -11.89,1.02 -18.29,0.63 -13.4,-0.82 -21.29,2.34 -33.96,3.85 -10.79,1.28 -15.14,5.64 -24.19,9.95 -4.52,2.15 -7.58,5.5 -9.87,10.02 -2.58,5.08 -3.03,7.93 -0.61,12.9 1.35,2.75 1.44,4.74 2.68,7.01 4.15,7.57 15.77,13.79 22.99,18.18l1.16 0.79c3.09,1.98 7.93,2.68 10.89,4.29 2.32,1.26 3.67,1.81 5.84,2.98 3.17,1.72 27.13,7.56 31.45,8.18l8.17 1.39c13.5,2.56 24.77,2.96 37.28,3.27l16.93 0.79c2.59,0 1.11,-0.5 4.03,-0.29 4.7,0.34 11.08,-0.39 15.61,0.45 6.31,1.17 -0.37,1.6 7.28,0.12l31.1 -1.05c10.71,0.02 12.49,-1.77 20,-1.42 1.78,0.08 3.11,0.2 3.89,0.02 2.05,-0.48 0.14,-0.68 3.77,-0.98 1.96,-0.16 4.14,0.13 5.57,0.02l22.59 -2.53c5.19,-0.87 10.68,-1.44 15.95,-3.57 5.11,-2.07 4.48,-0.79 8.65,-0.97 1.6,-0.07 2.47,-1.52 8.75,-2.21 12.86,-1.39 24.53,-5.1 36.98,-8.27l13.84 -5.14c6.07,-2.72 10.8,-4.24 15.6,-6.73l6.16 -2.73c8.23,-2.44 20.58,-14.14 22.85,-22.08 2.63,-9.18 -5.68,-14.82 -15.86,-14.82 -13.61,0 -28.65,2.13 -42.39,4.21l-25.32 4.54c-7.81,1.46 -16.25,3.83 -24.5,3.97 -9.66,0.17 -22.98,2.85 -33.87,3.15 -9.26,0.25 -5.55,1.3 -16.89,-0.21 -9.27,-1.24 -26.23,-2.55 -33.03,-8.26 -1,-0.84 -1.41,-1.55 -2.25,-2.24 -3.62,-3 -8.15,-6.55 -10.05,-11.24l-2.72 -7.96c-0.31,-1.35 -1.06,-3.24 -1.18,-3.92 -0.49,-2.71 -0.3,-6.15 -0.72,-9.02 -0.55,-3.75 0.24,-9.58 0.74,-11.59 1.44,-5.74 3.04,-6.87 6.52,-11.32 1.21,-1.55 -0.32,-0.02 1.14,-1.48l9.23 -6.69c0.18,-0.09 0.42,-0.19 0.62,-0.28l20.14 -4.8c14.11,-2.44 12.57,-0.14 23.27,-0.69 9.52,-0.49 14.02,1.24 21.73,2.27 1.78,0.23 3.29,0.03 5.02,0.18l59.94 12.34c3.43,0.64 5.82,3.05 12.34,3.79l37.15 9.57c4.16,0.72 5.94,2.03 8,2.49l24.03 2.14c4.16,-0.42 5.83,-0.3 9.86,0.19l33.11 -5.15c2.46,-1.02 4.54,-2.09 6.7,-3.11l7.16 -3.82c4.37,-3.31 8.36,-7.55 9.39,-12.23 3.23,-14.67 -3.01,-17.22 -6.2,-22.9 -1.75,-3.1 0.87,-0.49 -1.6,-3.38 -4.24,-4.95 -10.95,-6.85 -15.64,-10.21 -9.64,-6.9 -39.32,-11.25 -51.16,-11.22 -5.1,0.01 -15.06,0.72 -18.69,0.27 -5.7,-0.71 -67.88,8 -93.72,5.23 -6.56,-0.71 -12.94,-0.37 -19.53,-1.02 -6.42,-0.62 -12.07,-1.57 -18.08,-2.16 -3.85,-0.38 -4.55,-1.48 -8.04,-2.05 -13.89,-2.28 -27.98,-5.68 -40.48,-12.04 -1.89,-0.97 -1.25,-0.52 -2.52,-0.97 -6.85,-2.43 -13.49,-6.41 -19.42,-10.67l-8.12 -8.05c-1.97,-2.02 -7.52,-13.63 0.6,-22.1 1.82,-1.9 3.54,-3.01 5.73,-3.99l3.26 -1.18c0.21,-0.07 0.45,-0.15 0.67,-0.22 0.2,-0.07 0.43,-0.18 0.63,-0.24 3.83,-1.2 9.73,-0.65 12.97,-1.17 5.9,-0.95 16.44,1.8 22.75,2.62l24.36 4.35c10.1,1.72 19.68,4.94 29.96,6.51 5.38,0.83 10.09,0.84 17.47,2.63 7.42,1.81 20.53,0.89 28.11,2.01 12.22,1.79 26.31,0.72 38.34,1.57l80.35 -5.43c2.18,-0.36 4.56,-1.16 6.46,-1.39 1.5,-0.18 2.69,-0.03 4.18,-0.28 0.83,-0.13 3.29,-0.97 3.36,-0.98 9.86,-2.6 25.63,-5.04 34.1,-10.57l8.04 -3.78c4.49,-2.02 10.6,-7.53 13.79,-11.26 1.97,-2.29 4.15,-8.14 4.83,-11.21 0.84,-3.87 1.93,-11.13 2.31,-14.1 1.17,-9.25 -1.45,-20.79 -4.42,-28.55 -1.02,-2.67 -1.65,-2.65 -3.15,-5.19 -3.38,-5.71 -2.96,-7.76 -12.14,-12.77 -11.66,-6.39 -23.97,-5.05 -36.12,-0.02 -2.8,1.16 -4.51,2.57 -6.89,3.7 -2.25,1.07 -6.13,1.85 -8.57,2.81 -5.01,1.98 -10.54,4.02 -15.61,6 -7.31,2.83 -16.24,6.71 -24.13,8.7 -7.89,1.98 -13.65,4.73 -21.12,6.15 -1.22,0.23 -3.06,0.74 -4.95,1.14l-27.47 4.16c-16.8,0.23 -42.56,3.68 -57.66,-15.03 -3.29,-4.08 -4.7,-7.75 -6.33,-12.4l-0.47 -1.22c-1.12,-2.9 -2,-14.53 -1.35,-18.2l1.53 -9.06c1.88,-8.06 6.87,-15.52 13.88,-19.92 0.81,-0.5 0.34,-0.1 1.65,-0.99l15.2 -7.97c6.39,-2.19 13.4,-4.37 20.17,-5.05l51.95 1.49 72.11 16.09c14.16,0.99 21.27,5.66 35.38,-1.67 0.99,-0.51 1.07,-0.45 2.46,-1.18 3.94,-2.05 4.89,-5.03 7.01,-8.2 8.56,-12.75 5.51,-15.59 4.63,-26.96 -0.49,-6.23 -3.86,-11.47 -7.51,-15.73l-1.18 -1.74c-2.64,-4.05 -7.51,-6.53 -11.46,-9.04 -8.37,-5.32 -7.46,-7.78 -23.06,-11.84 -11.25,-2.92 -25.75,-8.51 -37.45,-8.9l-21.38 -2.09c-16.71,-2.15 -46.23,3.89 -62.69,8.29 -3.34,0.89 -4.8,2.26 -8.12,3.01l-20.06 3.54c-4.09,1 -4.31,1.85 -9.22,1.9 -14.36,0.12 -26.21,-1.58 -38.48,-7.23 -5.66,-2.6 -9.28,-5.82 -13.29,-10.1 -2.49,-2.67 -2.52,-4.64 -3.98,-7.31 -7.24,-13.33 -2.35,-19.38 5.45,-29.68 0.79,-1.04 1.03,-1.37 2.2,-2.31 1.14,-0.92 1.61,-1.16 2.61,-1.82l7.66 -3.94c1.45,-0.72 0.51,-0.09 1.79,-0.8l10.7 -3.71c7.98,-2.81 22.06,-3.02 29.87,-0.97 9.52,2.51 21.04,4.22 29.95,8.4l20.28 7.2c0.17,0.07 0.4,0.14 0.58,0.21l7.27 2.69c10.58,3.01 29.27,13.36 42.87,8.05 5.31,-2.08 10.21,-0.8 13.52,-6.18 5.46,-8.87 0.27,-16.82 -3.32,-25.35 -0.74,-1.76 -0.38,-1.13 -1.2,-2.3 -3.49,-4.96 -11.41,-14.09 -15.91,-17.35 -4.9,-3.56 -11.82,-7.67 -15.99,-11.8l-20.25 -11.7c-22.24,-10.5 -44.73,-18.54 -68.78,-23.41 -8.1,-1.64 -12.96,-4.06 -22.15,-4.21l-33.42 -4.63c-4.67,-1.03 -7.92,0.05 -9.96,-0.49 -6.19,-1.66 -5.69,-1.02 -12.17,-0.31l-24.94 -1.05c-3.46,-0.26 -8.21,0.84 -11.52,1.03 -1.86,0.1 -2.6,-0.61 -5.17,-0.72 -2.92,-0.13 -3.8,0.44 -6.48,0.75l-17.68 2.06c-1.56,0.04 -3.58,-0.49 -4.5,-0.49z"/>
  <g id="_1342873783328">
   <path class="fil0 str0" d="M410.52 682.39c0.29,1.05 1.38,3.63 1.97,5.27l27.13 74.37c1.11,2.99 3.11,7.38 3.84,10.95l5.1 0.31 0.04 -104.89c-0.4,-1.96 -0.54,-1.39 -1.14,-2.32l-2.68 0c-1.72,2.21 -0.59,-2.11 -1.53,3.2 -0.55,3.08 1.08,81.94 -0.26,86.13l-21.74 -59.56c-0.65,-1.69 -0.56,-1.11 -1.11,-2.44l-10.27 -27.38 -4.95 0.24 0.05 106.28 5.31 0.74 0.24 -90.9z"/>
   <path class="fil0 str0" d="M237.08 671.45c21.11,-0.04 31.16,-0.6 31.16,25.56 0,10.5 -0.19,17.12 -6.66,22.26 -6.14,4.87 -16.23,3.64 -24.83,3.61l0.33 -51.43zm18.16 56.54c8.12,-3.54 13.5,-6.2 16.95,-14.4 2.08,-4.93 2.32,-22.29 1.26,-29.04 -3.43,-22.05 -27.49,-18.48 -42.05,-18.48l0.08 106.73 5.27 0 0.02 -44.55 13.37 0.18c0.37,7.58 16.37,34.71 18.25,44.63l5.89 -0.26c-0.61,-3.69 -11.99,-28.4 -14.53,-34.5 -1.01,-2.41 -2.59,-8.53 -4.51,-10.31z"/>
   <path class="fil0 str0" d="M338.24 671.6c0.17,-0.04 0.28,-0.33 0.36,-0.37 4.96,-2.46 15.9,3.85 18.52,12.67 1.57,5.32 1.4,57.64 0.94,65.88 -0.49,8.77 -6.12,16.22 -14.55,18.14 -6.81,1.56 -15.18,-1.74 -19.04,-10.19 -0.61,-1.33 -0.64,-1.14 -1.12,-2.61 -1.33,-4.15 -0.7,-57.51 -0.62,-66.19 0.11,-13.35 7.93,-15.56 15.51,-17.33zm-2.98 -5.54c-24.09,5.6 -17.88,33.38 -17.88,58.62 0,16.41 -4.17,37.76 11.74,46.03 4.98,2.58 10.04,3.94 16,2.46 5.13,-1.27 8.8,-3.45 12.02,-6.58 8.03,-7.8 6.31,-21.35 6.31,-32.09l-0.22 -47.94c-2.25,-14.65 -13.34,-23.91 -27.97,-20.5z"/>
   <path class="fil0 str0" d="M152.94 729.1c0.06,-0.27 0.09,-0.5 0.14,-0.77l0.29 -1.49c0.05,-0.24 0.1,-0.47 0.15,-0.71l12.3 -54.61c1.81,10.57 5.15,21.63 7.34,31.94 2.21,10.46 4.56,19.94 6.75,30.45 -3.16,0.93 -23.23,1.12 -28.33,0.06l1.36 -4.87zm-9.95 43.7c0.82,-2.62 1,-4.4 1.78,-7.45l4.19 -17.65c0.06,-0.27 0.11,-0.49 0.16,-0.76l0.32 -2.41c1.08,-6.28 2.3,-4.75 14.11,-4.75 5.94,0 11.95,-0.25 17.85,0.3 -0.27,3.62 5.86,26.19 7.1,32.75l5.19 -0.15c0.25,-3.58 -1.83,-9.75 -2.66,-13.5 -1.05,-4.75 -2.06,-8.46 -3.03,-13.46 -0.16,-0.79 -0.24,-1.56 -0.36,-2.2 -0.05,-0.22 -0.08,-0.45 -0.13,-0.67l-1.64 -7.29c-0.06,-0.31 -0.56,-2.22 -0.67,-2.7 -0.97,-4.04 -2.05,-8.7 -3.01,-13.25l-1.16 -5.97c-0.07,-0.28 -0.3,-1.03 -0.37,-1.31l-10.25 -46.26c-10.27,0 -8.68,-1.82 -10.56,6.62l-15.97 71.62c-1.6,6.64 -5.43,21.77 -6.08,28.46l5.19 0.03z"/>
   <path class="fil0 str0" d="M577.24 671.43l35.9 0.3 -0.14 -5.65 -41.45 0 0.08 106.72c10.11,0 32.64,-1.17 41.27,0.49l0.1 -5.37c-8.08,-1.51 -26.74,-0.5 -36.09,-0.5l0.09 -50.7 29.86 0.42 -0.07 -4.95c-4.83,-2.05 -23.23,-0.82 -29.9,-0.82l0.35 -39.94z"/>
   <path class="fil0 str0" d="M98.55 750.53c-11.42,0 -1.19,2.1 -10.72,11.87 -11.77,12.07 -27.11,3.43 -29.69,-8.63l-0.28 -52.3c0,-16.78 -0.59,-26.26 13.74,-30.13 0.23,-0.06 0.47,-0.12 0.7,-0.18 0.24,-0.06 0.47,-0.13 0.71,-0.18 0.24,-0.05 0.47,-0.12 0.71,-0.16 1.93,-0.3 2.8,-0.23 4.59,0.21l3.12 1.07c0.19,0.07 0.44,0.14 0.63,0.21 2.03,0.78 1.69,0.46 3.39,1.94 6.55,5.72 4.53,5.88 8.09,13.88l5.37 0.43c-2,-9.13 -4.27,-15.91 -11.18,-19.97 -7.18,-4.23 -17.15,-4.14 -24.66,0.34 -14.88,8.89 -10.58,33.49 -10.58,51.29 0,18.53 -3.96,42.35 11.13,50.28 3.09,1.63 6.33,2.96 11.52,3.12 13.85,0.42 21.41,-9.27 23.41,-23.09z"/>
   <polygon class="fil0 str0" points="512.82,671.45 533.04,671.4 533.6,666.08 485.4,666.09 486.14,671.48 506.25,671.51 506.37,772.84 512.4,772.6 "/>
  </g>
 </g>
</svg>
